<svg width="160" height="81" viewBox="0 0 160 81" fill="none" xmlns="http://www.w3.org/2000/svg">
<path d="M70.2879 24.8471H93.3373V34.4859H79.9267V44.1249H93.3373V53.7637H70.2879V24.8471Z" fill="black"/>
<path d="M97.9473 24.8471H120.997V33.2287H107.586V34.9051H120.997V54.1828H97.9473V45.3821H111.358V43.7057H97.9473V24.8471Z" fill="black"/>
<path d="M125.607 24.8471H148.656V33.2287H135.246V34.9051H148.656V54.1828H125.607V45.3821H139.017V43.7057H125.607V24.8471Z" fill="black"/>
<path d="M55.4163 63.1918L34.3879 69.0215L13.4175 63.2L8.74432 10.7849H60.0944L55.4163 63.1918Z" fill="#264DE4"/>
<path d="M34.4194 64.5655L51.4113 59.8547L55.4091 15.0707H34.4194V64.5655Z" fill="#2965F1"/>
<path d="M34.4194 34.5106H19.4575L20.0336 40.939H34.4194V34.5106Z" fill="#EBEBEB"/>
<path d="M34.3972 21.4992H18.2998L18.8841 27.9278H34.4194V21.4992H34.3972Z" fill="#EBEBEB"/>
<path d="M34.3912 51.2136L27.2318 49.2804L26.7741 44.1534H23.2952H20.3209L21.2215 54.247L34.3898 57.9026L34.4194 57.8944V51.2061L34.3912 51.2136Z" fill="#EBEBEB"/>
<path d="M43.4555 27.9278L42.8706 34.5106H34.3971V40.9391H42.3131L41.5669 49.2763L34.3971 51.2115V57.8995L47.5759 54.2471L47.6726 53.161L49.1832 36.2369L49.34 34.5106L50.5006 21.4992H34.3971V27.9278H43.4555Z" fill="white"/>
</svg>
