<svg width="160" height="81" viewBox="0 0 160 81" fill="none" xmlns="http://www.w3.org/2000/svg">
<path d="M96.04 35.6064C93.7733 35.6064 92.0827 36.7197 92.0827 39.3997C92.0827 41.3997 93.196 42.8197 95.916 42.8197C98.2227 42.8197 99.7893 41.4597 99.7893 39.3157C99.7893 36.8824 98.3893 35.6064 96.04 35.6064ZM91.5067 54.5264C90.9693 55.1851 90.4347 55.8864 90.4347 56.6931C90.4347 58.3397 92.5347 58.8371 95.4213 58.8371C97.812 58.8371 101.068 58.6704 101.068 56.4464C101.068 55.1264 99.5013 55.0437 97.5213 54.9197L91.5213 54.509L91.5067 54.5264ZM103.707 35.7291C104.447 36.6797 105.232 37.9957 105.232 39.8931C105.232 44.4664 101.632 47.1464 96.4533 47.1464C95.12 47.1464 93.9533 46.9797 93.196 46.7757L91.836 48.9424L95.876 49.1891C103.009 49.6424 107.209 49.8504 107.209 55.3291C107.209 60.0704 103.049 62.7451 95.876 62.7451C88.416 62.7451 85.5733 60.8491 85.5733 57.5784C85.5733 55.7251 86.4 54.7344 87.84 53.3731C86.48 52.7997 86.0267 51.7677 86.0267 50.6557C86.0267 49.7491 86.48 48.9224 87.2227 48.1557L89.7773 45.6824C87.7573 44.6957 86.2307 42.5491 86.2307 39.5157C86.2307 34.7757 89.364 31.5211 95.6707 31.5211C97.444 31.5211 98.516 31.6851 99.464 31.9344H107.501V35.4371L103.708 35.7251L103.707 35.7291ZM114.751 28.2384C112.417 28.2384 111.041 26.8784 111.041 24.5264C111.041 22.1744 112.401 20.8997 114.751 20.8997C117.141 20.8997 118.501 22.1797 118.501 24.5264C118.501 26.8731 117.141 28.2384 114.752 28.2384H114.751ZM109.417 53.009V49.7557L111.521 49.4677C112.097 49.3851 112.181 49.2611 112.181 48.6411V36.5264C112.181 36.0731 112.057 35.7851 111.644 35.6597L109.417 34.8771L109.871 31.5411H118.404V48.6477C118.404 49.3077 118.444 49.3891 119.064 49.4744L121.164 49.7624V53.0131H109.413L109.417 53.009ZM137.48 51.4131C135.707 52.2797 133.109 53.0797 130.76 53.0797C125.853 53.0797 124 51.1037 124 46.4437V35.6437C124 35.3971 124 35.2304 123.667 35.2304H120.8V31.5637C124.427 31.1637 125.871 29.3371 126.324 24.8437H130.24V30.6971C130.24 30.9837 130.24 31.1104 130.571 31.1104H136.384V35.2304H130.227V45.0637C130.227 47.497 130.805 48.4437 133.027 48.4437C134.181 48.4437 135.36 48.1557 136.365 47.785L137.479 51.4117" fill="#362701"/>
<path d="M67.56 39.5797L42.8507 14.873C41.4293 13.4504 39.1213 13.4504 37.6973 14.873L32.568 20.0037L39.0747 26.5104C40.588 25.9997 42.3213 26.3437 43.524 27.5464C44.0982 28.1216 44.4991 28.8466 44.6809 29.6388C44.8627 30.431 44.818 31.2584 44.552 32.0264L50.824 38.2984C52.324 37.7757 54.0907 38.1157 55.304 39.325C55.8431 39.863 56.2309 40.5335 56.4283 41.269C56.6257 42.0046 56.6258 42.7792 56.4286 43.5147C56.2313 44.2503 55.8437 44.9209 55.3048 45.459C54.7658 45.9971 54.0946 46.3836 53.3587 46.5797C52.6235 46.7769 51.8493 46.7769 51.1141 46.5798C50.3789 46.3827 49.7086 45.9955 49.1707 45.457C47.8973 44.1824 47.584 42.3104 48.228 40.741L42.3947 34.9077V50.301C42.7947 50.5064 43.1973 50.777 43.5413 51.121C45.2347 52.8144 45.2347 55.5584 43.5413 57.2544C43.1389 57.6573 42.6609 57.977 42.1348 58.1951C41.6088 58.4132 41.0448 58.5254 40.4753 58.5254C39.9058 58.5254 39.3419 58.4132 38.8158 58.1951C38.2897 57.977 37.8118 57.6573 37.4093 57.2544C35.716 55.557 35.716 52.8144 37.4093 51.121C37.8157 50.715 38.2983 50.3933 38.8293 50.1744V34.641C38.3293 34.4277 37.8293 34.1157 37.4093 33.7077C36.8008 33.0995 36.3871 32.324 36.2208 31.4798C36.0546 30.6357 36.1434 29.7612 36.476 28.9677L30.06 22.5504L13.1067 39.4637C12.4252 40.1483 12.0426 41.075 12.0426 42.041C12.0426 43.007 12.4252 43.9337 13.1067 44.6184L37.8173 69.325C39.2387 70.7477 41.5467 70.7477 42.9707 69.325L67.56 44.7344C68.2415 44.0497 68.6241 43.123 68.6241 42.157C68.6241 41.191 68.2415 40.2643 67.56 39.5797Z" fill="#F03C2E"/>
</svg>
