<svg width="160" height="81" viewBox="0 0 160 81" fill="none" xmlns="http://www.w3.org/2000/svg">
<path d="M41.7268 56.4852C41.7268 59.0614 35.7594 61.1497 28.3983 61.1497C21.0371 61.1497 15.0697 59.0614 15.0697 56.4852C15.0697 53.909 21.0368 51.8199 28.3983 51.8199C35.7597 51.8199 41.7268 53.9116 41.7268 56.4852Z" fill="#A0DCF2"/>
<path d="M41.7268 56.4852C41.7268 59.0614 35.7594 61.1497 28.3983 61.1497C21.0371 61.1497 15.0697 59.0614 15.0697 56.4852C15.0697 53.909 21.0368 51.8199 28.3983 51.8199C35.7597 51.8199 41.7268 53.9116 41.7268 56.4852Z" fill="#82BDE7"/>
<path d="M13.1734 42.769L12.7887 44.1095C12.7887 44.1095 12.6886 44.594 13.1451 44.6798C13.6217 44.6705 13.5827 44.2244 13.5494 44.0798L13.1734 42.7692V42.769Z" fill="#A0DCF2"/>
<path d="M51.9205 37.1487L51.9557 36.9745C48.0456 36.1926 44.0332 36.1847 41.6032 36.2855C42.0019 34.8489 42.1221 33.1957 42.1221 31.3521C42.1221 28.7081 41.1287 26.5928 39.516 24.9833C39.7979 24.0738 40.1745 22.0533 39.14 19.4673C39.14 19.4673 37.3131 18.888 33.189 21.6498C31.5723 21.2458 29.8518 21.0461 28.1287 21.0461C26.233 21.0461 24.3173 21.2876 22.5307 21.7777C18.2716 18.8718 16.3917 19.467 16.3917 19.467C15.1642 22.5384 15.923 24.8075 16.1534 25.372C14.7109 26.9288 13.8303 28.9156 13.8303 31.3518C13.8303 33.1912 14.04 34.841 14.5515 36.275C12.1032 36.186 8.23676 36.2201 4.46378 36.9739L4.49873 37.1482C8.29156 36.3896 12.1818 36.3631 14.613 36.4553C14.7255 36.7518 14.8513 37.0378 14.9916 37.3184C12.5854 37.396 8.47717 37.7023 4.53976 38.8133L4.58795 38.9841C8.55634 37.8649 12.7005 37.566 15.0835 37.4934C16.5212 40.1729 19.3555 41.904 24.3981 42.4446C23.6822 42.9255 22.9524 43.7431 22.6559 45.1268C21.6808 45.5928 18.5935 46.7318 16.7409 43.5461C16.7409 43.5461 15.7041 41.6503 13.7194 41.5021C13.7194 41.5021 11.7945 41.4756 13.5862 42.7015C13.5862 42.7015 14.8748 43.3086 15.7634 45.5875C15.7634 45.5875 16.9231 49.4783 22.5182 48.2299V52.2491C22.5182 52.2491 22.3999 53.6709 21.0964 54.1443C21.0964 54.1443 20.3265 54.6776 21.1557 54.9731C21.1557 54.9731 24.7685 55.2696 24.7685 52.3081V47.9257C24.7685 47.9257 24.6255 46.1874 25.4789 45.5835V52.7871C25.4789 52.7871 25.4201 54.5047 24.5315 55.1563C24.5315 55.1563 23.9392 56.222 25.2422 55.9262C25.2422 55.9262 27.7294 55.5709 27.8481 52.6688L27.9047 45.3841H28.5023L28.5592 52.6688C28.6776 55.5706 31.1651 55.9262 31.1651 55.9262C32.4678 56.222 31.8755 55.1563 31.8755 55.1563C30.9872 54.5049 30.9281 52.7871 30.9281 52.7871V45.6507C31.7815 46.3127 31.6388 47.9309 31.6388 47.9309V52.3134C31.6388 55.2746 35.2513 54.9783 35.2513 54.9783C36.08 54.6826 35.3109 54.1496 35.3109 54.1496C34.0077 53.673 33.8891 52.2544 33.8891 52.2544V46.5097C33.8891 44.2697 32.9457 43.083 32.0232 42.4568C37.3981 41.9236 39.9812 40.1872 41.1705 37.4892C43.5259 37.5538 47.7649 37.8408 51.8196 38.9851L51.8678 38.8144C47.8361 37.6772 43.6255 37.383 41.246 37.3136C41.3588 37.0409 41.457 36.7576 41.5444 36.4664C43.9551 36.3605 47.9857 36.3644 51.9112 37.1495" fill="#292929"/>
<path d="M36.8646 31.225C38.0229 32.2743 38.7005 33.5417 38.7005 34.9066C38.7005 41.281 33.9484 41.4539 28.0871 41.4539C22.2259 41.4539 17.4733 40.574 17.4733 34.9093C17.4733 33.5531 18.1416 32.2939 19.2856 31.2488C21.1936 29.5071 24.4232 30.4293 28.0866 30.4293C31.7357 30.4293 34.9532 29.4979 36.8638 31.2276" fill="#F5CDB5"/>
<path d="M24.5578 35.2341C24.5578 36.9896 23.5691 38.413 22.3496 38.413C21.13 38.413 20.1409 36.9898 20.1409 35.2341C20.1409 33.4784 21.13 32.0558 22.3496 32.0558C23.5691 32.0558 24.5578 33.4784 24.5578 35.2341Z" fill="white"/>
<path d="M23.849 35.2741C23.849 36.4444 23.187 37.3928 22.3768 37.3928C21.5666 37.3928 20.9047 36.4444 20.9047 35.2741C20.9047 34.1038 21.5635 33.1544 22.3768 33.1544C23.1902 33.1544 23.849 34.1033 23.849 35.2741Z" fill="#B1645A"/>
<path d="M36.4052 35.2341C36.4052 36.9896 35.4165 38.413 34.1965 38.413C32.9764 38.413 31.9883 36.9898 31.9883 35.2341C31.9883 33.4784 32.9772 32.0558 34.1965 32.0558C35.4157 32.0558 36.4052 33.4784 36.4052 35.2341Z" fill="white"/>
<path d="M35.6964 35.2741C35.6964 36.4444 35.0345 37.3928 34.2243 37.3928C33.4141 37.3928 32.7521 36.4444 32.7521 35.2741C32.7521 34.1038 33.4141 33.1544 34.2243 33.1544C35.0345 33.1544 35.6964 34.1033 35.6964 35.2741ZM28.6704 38.0542C28.6704 38.3592 28.4231 38.6065 28.1181 38.6065C27.8131 38.6065 27.5658 38.3592 27.5658 38.0542C27.5658 37.7492 27.8128 37.5019 28.1181 37.5019C28.4234 37.5019 28.6704 37.7492 28.6704 38.0542ZM26.8316 39.4509C26.8238 39.4289 26.8205 39.4056 26.8217 39.3823C26.8229 39.359 26.8288 39.3362 26.8388 39.3151C26.8489 39.2941 26.863 39.2752 26.8803 39.2596C26.8977 39.244 26.9179 39.232 26.9399 39.2242C26.9619 39.2165 26.9852 39.2131 27.0085 39.2143C27.0318 39.2156 27.0546 39.2214 27.0756 39.2315C27.0967 39.2415 27.1155 39.2556 27.1311 39.273C27.1467 39.2903 27.1588 39.3105 27.1665 39.3325C27.3085 39.7337 27.6889 40.0032 28.1136 40.0032C28.5383 40.0032 28.9185 39.7337 29.061 39.3325C29.0687 39.3106 29.0808 39.2903 29.0964 39.273C29.1119 39.2557 29.1308 39.2416 29.1518 39.2315C29.1729 39.2215 29.1957 39.2157 29.2189 39.2145C29.2422 39.2132 29.2655 39.2166 29.2875 39.2244C29.3095 39.2322 29.3297 39.2442 29.347 39.2598C29.3643 39.2754 29.3784 39.2942 29.3885 39.3152C29.3985 39.3363 29.4043 39.3591 29.4056 39.3824C29.4068 39.4056 29.4034 39.4289 29.3956 39.4509C29.3002 39.7143 29.1259 39.9419 28.8966 40.1028C28.6672 40.2637 28.3938 40.35 28.1136 40.35C27.8335 40.35 27.5601 40.2637 27.3307 40.1028C27.1013 39.9419 26.927 39.7143 26.8316 39.4509Z" fill="#B1645A"/>
<path d="M14.5873 41.9786C14.5873 42.1261 14.4146 42.245 14.202 42.245C13.9894 42.245 13.8171 42.1258 13.8171 41.9786C13.8171 41.8314 13.9892 41.7117 14.202 41.7117C14.4149 41.7117 14.5873 41.8309 14.5873 41.9786ZM15.6538 42.5704C15.6538 42.7179 15.4811 42.8373 15.2685 42.8373C15.0559 42.8373 14.8836 42.7181 14.8836 42.5704C14.8836 42.4226 15.0557 42.304 15.2685 42.304C15.4814 42.304 15.6538 42.4232 15.6538 42.5704ZM16.3056 43.3382C16.3056 43.4852 16.1335 43.6046 15.9204 43.6046C15.7073 43.6046 15.5357 43.4854 15.5357 43.3382C15.5357 43.191 15.7078 43.0713 15.9204 43.0713C16.133 43.0713 16.3056 43.1905 16.3056 43.3382ZM16.8974 44.2271C16.8974 44.3745 16.7253 44.4939 16.5127 44.4939C16.3001 44.4939 16.1274 44.3748 16.1274 44.2271C16.1274 44.0793 16.2996 43.9602 16.5127 43.9602C16.7258 43.9602 16.8974 44.0793 16.8974 44.2271ZM17.5493 45.0592C17.5493 45.2062 17.3772 45.3256 17.1643 45.3256C16.9514 45.3256 16.7791 45.2064 16.7791 45.0592C16.7791 44.912 16.9517 44.7923 17.1643 44.7923C17.3769 44.7923 17.5493 44.9115 17.5493 45.0592ZM18.4381 45.7696C18.4381 45.9171 18.266 46.0365 18.0529 46.0365C17.8397 46.0365 17.6682 45.9174 17.6682 45.7696C17.6682 45.6219 17.8403 45.5033 18.0529 45.5033C18.2655 45.5033 18.4381 45.6224 18.4381 45.7696Z" fill="#C5E6DA"/>
<path d="M19.682 46.2438C19.682 46.3908 19.5099 46.5102 19.297 46.5102C19.0841 46.5102 18.9118 46.391 18.9118 46.2438C18.9118 46.0966 19.0839 45.9769 19.297 45.9769C19.5102 45.9769 19.682 46.0961 19.682 46.2438Z" fill="#C5E6DA"/>
<path d="M20.9201 46.2438C20.9201 46.3908 20.748 46.5102 20.5351 46.5102C20.3222 46.5102 20.1498 46.391 20.1498 46.2438C20.1498 46.0966 20.3219 45.9769 20.5351 45.9769C20.7482 45.9769 20.9201 46.0961 20.9201 46.2438Z" fill="#C5E6DA"/>
<path d="M22.1767 46.0376C22.1767 46.185 22.0046 46.3044 21.7917 46.3044C21.5788 46.3044 21.4064 46.1853 21.4064 46.0376C21.4064 45.8898 21.5785 45.7707 21.7917 45.7707C22.0048 45.7707 22.1767 45.8898 22.1767 46.0376Z" fill="#C5E6DA"/>
<path d="M67.5547 28.7704C69.0213 28.7704 70.692 28.4064 72.6013 27.6797V32.3637C72.1773 32.5157 71.5707 32.6837 70.7827 32.8637C71.0253 33.561 71.1467 34.213 71.1467 34.8184C71.1467 36.7584 70.556 38.4557 69.3733 39.9117C68.2617 41.312 66.6459 42.2214 64.872 42.445C63.672 42.6264 63.0533 43.2784 63.0533 44.3997C63.0533 44.7944 63.2507 45.1997 63.644 45.5824C64.1587 46.1584 64.9173 46.5224 65.9173 46.673C70.2507 47.3397 72.42 49.1437 72.42 52.0837C72.42 56.7824 69.616 59.1317 64.02 59.1317C61.716 59.1317 59.82 58.7224 58.336 57.905C56.4693 56.8744 55.5173 55.2384 55.5173 53.0384C55.5173 50.505 56.9267 48.749 59.744 47.809V47.7184C58.7133 47.0824 58.1973 46.1117 58.1973 44.809C58.1973 43.1117 58.6827 42.049 59.664 41.6264V41.5357C58.6933 41.2024 57.8307 40.445 57.072 39.2624C56.2227 37.989 55.7987 36.625 55.7987 35.169C55.7987 32.9864 56.572 31.169 58.1187 29.713C59.5629 28.3637 61.4759 27.63 63.452 27.6677C64.9033 27.6587 66.331 28.0351 67.5893 28.7584L67.5547 28.7704ZM60.7693 35.2144C60.7693 37.3077 61.724 38.3517 63.6333 38.3517C65.4827 38.3517 66.4067 37.2904 66.4067 35.169C66.4067 34.289 66.1933 33.5317 65.7707 32.8957C65.256 32.1984 64.544 31.8504 63.6333 31.8504C61.724 31.8504 60.7693 32.9704 60.7693 35.2157V35.2144ZM67.772 52.6757C67.772 51.129 66.4987 50.3557 63.952 50.3557C61.496 50.3557 60.2693 51.1584 60.2693 52.765C60.2693 54.341 61.6027 55.129 64.2693 55.129C66.6027 55.129 67.7707 54.3104 67.7707 52.6757H67.772ZM77.7333 24.3597C76.8533 24.3597 76.096 24.0264 75.46 23.3597C74.8637 22.7182 74.538 21.8714 74.5507 20.9957C74.5507 20.0557 74.8533 19.253 75.46 18.5864C76.096 17.9197 76.8547 17.5864 77.7333 17.5864C78.5827 17.5864 79.3093 17.9197 79.916 18.5864C80.552 19.253 80.8707 20.057 80.8707 20.9957C80.8759 21.4333 80.7942 21.8676 80.6303 22.2734C80.4664 22.6792 80.2236 23.0484 79.916 23.3597C79.3093 24.0264 78.5827 24.3597 77.7333 24.3597ZM75.1413 48.093C75.2013 47.4864 75.232 46.4557 75.232 44.9997V30.8624L75.1413 27.9064H80.2667C80.2067 28.4824 80.176 29.437 80.176 30.7704V44.7304L80.2667 48.0957H75.128L75.1413 48.093ZM89.7947 27.9064H93.7507V32.317C93.4623 32.3113 93.1741 32.2962 92.8867 32.2717L91.7493 32.2264H89.7947V40.6837C89.7947 42.7144 90.4613 43.7304 91.7947 43.7304C92.7028 43.7399 93.5919 43.4699 94.3413 42.957V47.4904C93.2213 48.097 91.8707 48.3997 90.2947 48.3997C88.0813 48.3997 86.5507 47.5997 85.7027 46.0357C85.0667 44.853 84.748 42.989 84.748 40.4437V32.305H84.7933V32.2144L84.1107 32.169C83.5926 32.1794 83.0759 32.2248 82.564 32.305V27.8944H84.7907V26.121C84.7907 25.2717 84.7453 24.5904 84.6547 24.0744H89.9293C89.8387 24.6504 89.7933 25.301 89.7933 26.029V27.893L89.7947 27.9064ZM105.927 27.7704C104.623 27.7704 103.26 28.2237 101.833 29.1344V21.177L101.924 17.7664H96.74C96.8307 18.2517 96.876 19.3877 96.876 21.177V45.2304L96.74 48.0944H102.015C102.015 48.0037 101.984 47.641 101.924 47.001L101.833 45.2277V34.0464C102.895 33.0464 103.927 32.5464 104.927 32.5464C106.079 32.5464 106.957 33.1224 107.564 34.2744C108.017 35.1837 108.247 36.321 108.247 37.685L108.201 43.8237C108.201 44.8544 108.125 46.277 107.975 48.0984H113.476C113.343 47.341 113.295 45.9464 113.295 43.9157V37.6864C113.295 35.049 112.704 32.8064 111.521 30.957C110.188 28.8237 108.321 27.7744 105.928 27.7744L105.927 27.7704ZM123.4 48.277C121.005 48.277 119.232 47.2157 118.067 45.0944C117.157 43.3664 116.703 41.0944 116.703 38.321V32.0917L116.521 27.909H121.977C121.887 28.5757 121.825 30.0024 121.796 32.1837L121.751 38.3224C121.751 40.0504 121.948 41.293 122.341 42.0504C122.795 42.9904 123.629 43.4597 124.843 43.4597C125.692 43.4597 126.647 42.9597 127.707 41.9597V30.7597C127.703 30.1675 127.673 29.5758 127.616 28.9864L127.525 27.8957H132.8C132.74 28.4117 132.709 29.3664 132.709 30.7597V44.6864L132.8 48.097H127.867V46.4464C126.472 47.6464 124.987 48.265 123.411 48.265L123.4 48.277ZM145.771 48.2197C145.001 48.237 144.237 48.0874 143.53 47.7813C142.824 47.4752 142.192 47.0198 141.679 46.4464V48.0837H136.859C136.949 47.5677 136.995 46.613 136.995 45.2197V21.1797L136.859 17.769H142.043C141.981 18.3024 141.952 19.4517 141.952 21.1797V29.0917C143.347 28.2117 144.712 27.7584 146.045 27.7584C148.44 27.7584 150.32 28.8197 151.685 30.941C152.837 32.7904 153.413 35.0344 153.413 37.6704C153.413 40.3677 152.807 42.717 151.595 44.7184C150.128 47.0517 148.2 48.2197 145.775 48.2197H145.771ZM145.092 32.533C144.092 32.533 143.045 33.033 141.955 34.033V41.913C142.925 42.853 143.88 43.3224 144.819 43.3224C146.001 43.3224 146.895 42.6557 147.501 41.3677C147.987 40.337 148.229 39.109 148.229 37.685C148.229 34.2584 147.184 32.5477 145.092 32.5477" fill="black"/>
</svg>
