<svg width="160" height="81" viewBox="0 0 160 81" fill="none" xmlns="http://www.w3.org/2000/svg">
<path d="M8.40002 29.213H16V36.7197H22.9507V29.213H30.5507V51.9463H22.9507V44.3463H16V51.9463H8.40002V29.213ZM40.5427 36.753H33.84V29.2143H54.8214V36.753H48.128V51.949H40.528V36.753H40.5427ZM58.152 29.213H66.076L70.9507 37.213L75.82 29.213H83.7334V51.9463H76.1654V40.677L70.9387 48.761H70.808L65.6 40.6783V51.9477H58.1654L58.152 29.213ZM87.5254 29.213H95.1254V44.4463H105.812V51.961H87.5267L87.5254 29.213Z" fill="black"/>
<path d="M109.427 16.6597H151.609L147.767 59.7104L130.493 64.4997L113.267 59.7171L109.427 16.6597Z" fill="#E44D26"/>
<path d="M144.48 56.9704L147.764 20.181H130.533V60.8397L144.48 56.9704Z" fill="#F16529"/>
<path d="M123.533 36.1504L123.051 30.7424H130.533V25.4624H117.293L118.717 41.4317H130.533V36.1517L123.533 36.1504ZM118.939 44.0731L119.679 52.3664L130.496 55.3691L130.52 55.3624V49.8691L130.497 49.8757L124.631 48.2757L124.255 44.0624H121.397L118.939 44.0731Z" fill="#EBEBEB"/>
<path d="M142.648 37.5664L142.777 36.1477H130.503V41.4277H137.005L136.392 48.277L130.503 49.8664V55.3597L141.329 52.3597L141.409 51.4664L142.648 37.5664ZM130.515 30.7424H143.271L143.744 25.449H130.515V30.7157V30.7424Z" fill="white"/>
</svg>
