<svg width="80" height="81" viewBox="0 0 80 81" fill="none" xmlns="http://www.w3.org/2000/svg">
<g clip-path="url(#clip0)">
<path d="M80 0.579712H0V80.5797H80V0.579712Z" fill="#F7DF1E"/>
<path d="M53.7397 63.08C55.3511 65.7111 57.4476 67.6451 61.1556 67.6451C64.2705 67.6451 66.2603 66.0883 66.2603 63.9371C66.2603 61.3594 64.2159 60.4464 60.7873 58.9467L58.9079 58.1403C53.4832 55.8292 49.8794 52.934 49.8794 46.8133C49.8794 41.1752 54.1752 36.8832 60.8889 36.8832C65.6686 36.8832 69.1048 38.5467 71.581 42.9022L65.727 46.661C64.4381 44.3498 63.0476 43.4394 60.8889 43.4394C58.687 43.4394 57.2914 44.8362 57.2914 46.661C57.2914 48.9162 58.6883 49.8292 61.9137 51.226L63.793 52.0311C70.1803 54.7702 73.7867 57.5625 73.7867 63.8406C73.7867 70.6089 68.4698 74.3168 61.3295 74.3168C54.3479 74.3168 49.8375 70.9898 47.6305 66.6292L53.7397 63.08ZM27.1835 63.7314C28.3645 65.8267 29.4387 67.5981 32.0216 67.5981C34.4914 67.5981 36.0495 66.6317 36.0495 62.8743V37.3124H43.567V62.9759C43.567 70.76 39.0032 74.3029 32.3416 74.3029C26.3226 74.3029 22.8368 71.1879 21.0641 67.4362L27.1835 63.7314Z" fill="black"/>
</g>
<defs>
<clipPath id="clip0">
<rect width="80" height="80" fill="white" transform="translate(0 0.579712)"/>
</clipPath>
</defs>
</svg>
