<svg width="160" height="81" viewBox="0 0 160 81" fill="none" xmlns="http://www.w3.org/2000/svg">
<path d="M21.5294 7.45172L22.9827 10.1851C23.2991 10.6781 23.6674 11.1358 24.0814 11.5504C25.2987 12.7677 26.4574 14.0437 27.4947 15.4104C29.9587 18.6464 31.6214 22.2397 32.8094 26.1304C33.5214 28.5064 33.908 30.9411 33.9374 33.4051C34.0574 40.7691 31.532 47.0931 26.4254 52.3491C25.5979 53.1822 24.7043 53.9469 23.7534 54.6357C23.2467 54.6357 23.0107 54.2357 22.8027 53.8931C22.4027 53.2264 22.1787 52.4971 22.06 51.7557C21.8814 50.8651 21.7627 49.9744 21.8227 49.0531V48.6371C21.7934 48.5477 21.348 7.66106 21.5254 7.45306L21.5294 7.45172Z" fill="#599636"/>
<path d="M21.5293 7.3637C21.4693 7.2437 21.4093 7.33437 21.3506 7.39304C21.38 7.98637 21.172 8.52104 20.844 9.02637C20.488 9.53304 20.012 9.91704 19.5373 10.333C16.8946 12.6197 14.8173 15.381 13.1533 18.469C10.956 22.6264 9.79865 27.0797 9.47332 31.7717C9.32665 33.465 10.0067 39.433 10.5427 41.1544C11.996 45.7277 14.6093 49.557 18.0093 52.8824C18.8413 53.6824 19.732 54.4264 20.652 55.1384C20.9186 55.1384 20.9493 54.901 21.008 54.7224C21.125 54.3432 21.2141 53.9559 21.2746 53.5637C21.5413 52.0797 21.6906 50.5944 21.868 49.1104L21.5413 7.3637H21.5293Z" fill="#6CAC48"/>
<path d="M22.9867 56.4464C23.0467 55.7637 23.3867 55.1997 23.7294 54.6357C23.3734 54.489 23.1054 54.1904 22.8974 53.8624C22.7187 53.5651 22.5707 53.1957 22.452 52.8824C22.036 51.6357 21.9454 50.3291 21.828 49.0517V48.2784C21.6814 48.3984 21.6494 49.4064 21.6494 49.5557C21.56 50.921 21.3827 52.2584 21.116 53.5637C21.0267 54.097 20.9694 54.633 20.6414 55.1077C20.6414 55.1677 20.6414 55.2277 20.6707 55.3157C21.204 56.889 21.3534 58.493 21.444 60.1264V60.7197C21.444 61.4317 21.4147 61.2837 22.008 61.5197C22.2454 61.6091 22.5147 61.6397 22.7507 61.8171C22.9294 61.8171 22.9587 61.6704 22.9587 61.5504L22.8694 60.5704V57.8371C22.84 57.3624 22.9294 56.8864 22.9894 56.441L22.9867 56.4464Z" fill="#C2BFBF"/>
<path d="M45.5343 44.0282V46.856C45.5311 46.968 45.5375 47.0801 45.5534 47.191C45.5901 47.5259 45.7957 47.7301 46.098 47.8241C46.38 47.8983 46.6665 47.9542 46.9557 47.9915C47.1232 48.0106 47.179 48.0841 47.1981 48.2638C47.2171 48.8969 47.1613 48.9718 46.5473 48.9337C45.115 48.8588 43.6813 48.8411 42.249 48.9337H42.1129C41.6663 48.9527 41.6295 48.9146 41.6295 48.4681C41.6295 48.3932 41.6486 48.3006 41.6486 48.2257C41.6486 48.0896 41.7412 48.0215 41.8719 48.0215C42.1714 47.9847 42.4492 47.9098 42.7296 47.854C43.1204 47.7614 43.3423 47.5191 43.3804 47.1283C43.4349 46.7008 43.4349 46.2543 43.4349 45.8254L43.4539 40.8396C43.4601 40.695 43.4249 40.5516 43.3526 40.4262C43.2803 40.3009 43.1738 40.1987 43.0455 40.1316C42.7088 39.9446 42.3527 39.7948 41.9835 39.685C41.8719 39.6483 41.7602 39.6306 41.6677 39.5734C41.3954 39.4427 41.3885 39.2017 41.6486 39.0519C41.7412 38.9975 41.8528 38.9593 41.9645 38.9403C43.0936 38.7736 44.203 38.4931 45.2756 38.103C45.4989 38.0281 45.5547 38.0485 45.5752 38.2704C45.5942 38.4066 45.5752 38.57 45.5561 38.6979C45.5193 38.9403 45.5193 39.1813 45.5193 39.4059C45.5193 39.4985 45.5384 39.5924 45.631 39.6483C45.7236 39.7041 45.8175 39.6483 45.9033 39.5938C46.294 39.2943 46.6848 39.0165 47.1123 38.7769C47.725 38.442 48.3785 38.1438 49.0865 38.0512C49.9442 37.9396 50.6862 38.1629 51.3384 38.7211C51.608 38.9624 51.8455 39.2374 52.045 39.5393C52.2315 39.8116 52.2492 39.8185 52.4916 39.6319C53.1995 39.1105 53.9429 38.6462 54.7435 38.3113C55.5808 37.9573 56.4372 37.9028 57.2922 38.1996C58.1663 38.5155 58.7626 39.1295 59.1166 39.9669C59.4162 40.6367 59.5441 41.3284 59.5441 42.0499V47.0358C59.5441 47.3707 59.6803 47.5804 60.0098 47.7437C60.3638 47.8799 60.7545 47.948 61.1262 48.0228C61.3685 48.0773 61.3685 48.0773 61.3685 48.3224C61.3318 48.935 61.276 48.9732 60.6796 48.935C59.1863 48.8513 57.6895 48.8513 56.1962 48.935C55.8967 48.9541 55.8967 48.9541 55.8803 48.6559V48.5634C55.8613 48.0596 55.8613 48.0596 56.346 47.9507L56.8293 47.82C56.9931 47.7814 57.1391 47.6889 57.2438 47.5572C57.3485 47.4256 57.4059 47.2625 57.4066 47.0943L57.461 45.6988L57.4243 42.0527C57.41 41.7271 57.341 41.4063 57.2201 41.1037C56.7544 39.9682 55.7319 39.5598 54.7448 39.6714C54.0001 39.7463 53.3493 40.0431 52.7353 40.472C52.6046 40.5646 52.512 40.6762 52.531 40.8627C52.6985 42.054 52.5855 43.2453 52.6059 44.4353V47.0221C52.6059 47.4878 52.7925 47.7111 53.239 47.8227L54.0968 48.0092C54.2275 48.0283 54.301 48.0841 54.301 48.2325V48.3687C54.2819 48.8901 54.2465 48.9133 53.7237 48.9078C52.2356 48.8329 50.7461 48.8534 49.2771 48.9078C48.7733 48.9269 48.7325 48.8711 48.7556 48.3632C48.7747 48.0637 48.8101 48.0473 49.0905 47.9915L49.7032 47.8799C50.2478 47.7682 50.448 47.564 50.4847 46.9867L50.5392 45.7396L50.5024 41.9996C50.4657 41.5339 50.3663 41.0874 50.1117 40.6599C49.74 39.9709 49.1586 39.6183 48.3621 39.5802C47.5616 39.5257 46.855 39.8225 46.1837 40.1929C45.7181 40.4652 45.5139 40.7878 45.5506 41.3284V44.0445L45.5343 44.0282ZM80.5888 44.1412V46.7648C80.5918 46.9514 80.6041 47.1377 80.6256 47.323C80.6335 47.4466 80.6814 47.5642 80.7619 47.6582C80.8424 47.7523 80.9513 47.8176 81.0722 47.8445C81.3932 47.9381 81.7239 47.9943 82.0579 48.0119C82.2444 48.031 82.2812 48.1045 82.3002 48.2543V48.385C82.2812 49.0358 82.2076 49.1107 81.5745 49.0739C80.1586 48.9813 78.7467 48.999 77.3321 49.0739L76.7875 49.093C76.6759 49.093 76.6514 49.0385 76.62 48.9623C76.5657 48.7046 76.5657 48.4384 76.62 48.1808C76.6391 48.0691 76.7126 48.0446 76.8243 48.0133C77.0966 47.9766 77.328 47.9207 77.5867 47.8772C78.0523 47.7655 78.2198 47.5776 78.2375 47.0957L78.292 45.5327V40.9553C78.292 40.6204 78.1613 40.4162 77.8645 40.2664C77.5295 40.0799 77.1755 39.9505 76.8025 39.8198C76.6908 39.7831 76.5792 39.7449 76.4866 39.6891C76.2443 39.5216 76.2143 39.2807 76.4499 39.0941C76.5555 39.0073 76.6852 38.955 76.8215 38.9444C78.0129 38.7578 79.166 38.4978 80.2825 38.0512C80.4132 37.9968 80.469 38.0322 80.5248 38.1438C80.5806 38.2555 80.5997 38.3862 80.5793 38.5155L80.5248 39.3896C80.5248 39.5012 80.4704 39.6619 80.5616 39.7054C80.6732 39.7803 80.7481 39.6129 80.8407 39.5693C81.3901 39.1085 81.9969 38.7208 82.646 38.4161C83.2233 38.1438 83.8169 37.9695 84.4882 38.0077C85.7353 38.0825 86.6284 38.7156 87.2043 39.813C87.5039 40.3903 87.6319 41.022 87.6877 41.6742L87.7421 43.0357L87.7612 47.1474C87.7803 47.4633 87.8919 47.6689 88.2078 47.7805C88.5352 47.8896 88.8714 47.9707 89.2125 48.0228C89.5121 48.0596 89.5284 48.1154 89.5475 48.3945V48.4871C89.5107 49.1202 89.4726 49.1379 88.8395 49.0998C87.4513 49.0254 86.0601 49.0254 84.6719 49.0998C84.4854 49.1188 84.3003 49.0998 84.1273 49.1188C84.0157 49.1188 83.9408 49.0998 83.9231 48.9881C83.8864 48.7458 83.8482 48.5048 83.9041 48.2434C83.9231 48.1318 83.9789 48.0759 84.1083 48.0569L84.966 47.9207C85.2656 47.8458 85.4317 47.6484 85.4698 47.3761L85.5065 46.8547L85.4875 42.9662C85.4875 42.5197 85.4684 42.0731 85.3758 41.6265C85.1526 40.6735 84.4269 39.9927 83.4425 39.8974C82.5848 39.8048 81.8087 40.0281 81.098 40.4924C80.744 40.7157 80.5943 41.0315 80.5943 41.4223V44.2324C80.5943 44.178 80.5943 44.178 80.6133 44.178L80.5888 44.1412Z" fill="#47474A"/>
<path d="M135.084 38.8749C134.88 37.5161 134.376 36.3071 133.502 35.2465C132.74 34.3096 131.755 33.58 130.636 33.1253C129.465 32.642 128.217 32.4922 126.952 32.4554C126.43 32.4364 119.323 32.548 118.802 32.4554C118.671 32.4364 118.579 32.4745 118.502 32.5861C118.41 32.7223 118.316 32.8652 118.26 33.0137C118.037 33.5174 118.037 33.4793 118.576 33.5528C119.023 33.6277 119.45 33.6644 119.879 33.7952C120.27 33.9259 120.549 34.1491 120.641 34.5767C120.678 34.7809 120.716 41.3297 120.716 44.3822L120.641 46.5606C120.622 46.728 120.605 46.8955 120.549 47.0439C120.474 47.2672 120.345 47.4523 120.121 47.5477C119.876 47.6633 119.611 47.7325 119.34 47.7519C118.836 47.8063 118.763 47.8268 118.595 48.385L118.541 48.5892C118.504 48.8315 118.522 48.8683 118.764 48.8683L124.327 48.9228L126.505 48.886L128.013 48.6995C129.724 48.3836 131.25 47.6756 132.552 46.5415C133.295 45.8848 133.902 45.0882 134.338 44.197C134.86 43.1555 135.083 42.0186 135.139 40.8668C135.231 40.216 135.193 39.5461 135.084 38.8763V38.8749ZM132.386 41.5162C132.311 42.7075 132.07 43.8607 131.456 44.9023C130.674 46.261 129.558 47.21 128.014 47.5436C127.344 47.6797 126.674 47.7478 125.972 47.6552C125.468 47.6007 124.986 47.5436 124.52 47.3761C123.683 47.0766 123.385 46.5592 123.367 45.7423L123.348 34.5236C123.348 33.8537 123.648 33.7067 124.13 33.6862C124.855 33.6318 125.6 33.6495 126.326 33.723C127.098 33.7977 127.856 33.981 128.578 34.2676C129.113 34.4909 129.61 34.7989 130.048 35.1798C131.053 36.0375 131.723 37.1131 132.09 38.3793C132.39 39.4032 132.444 40.4447 132.39 41.4863L132.386 41.5162ZM150.548 43.3406C150.548 43.229 150.548 43.1364 150.529 43.0248C150.362 42.0009 149.821 41.2194 148.985 40.6244C148.446 40.2337 147.832 39.9736 147.199 39.7871C147.087 39.7503 146.995 39.7122 146.883 39.6945C146.902 39.6019 146.958 39.5829 147.014 39.5638C147.385 39.3773 147.739 39.1731 148.055 38.894C148.632 38.4106 149.008 37.8143 149.208 37.0886C149.32 36.6979 149.32 36.3071 149.283 35.8973C149.253 35.4179 149.115 34.9515 148.88 34.5326C148.645 34.1138 148.318 33.7533 147.924 33.4779C147.067 32.8448 146.063 32.5848 145.022 32.5657C143.012 32.529 140.985 32.5657 138.977 32.5657C138.399 32.5657 137.824 32.6025 137.227 32.5113C137.116 32.4922 136.955 32.4568 136.873 32.5861C136.737 32.8285 136.574 33.0695 136.519 33.3486C136.5 33.4793 136.538 33.5528 136.687 33.5719L137.971 33.7584C138.474 33.8333 138.828 34.1124 138.864 34.559C138.9 34.8676 138.918 35.1781 138.918 35.4889L138.881 38.9675L138.862 45.8512C138.862 46.2597 138.808 46.6518 138.732 47.0602C138.713 47.1899 138.658 47.3116 138.572 47.4106C138.486 47.5096 138.374 47.5818 138.248 47.6184C137.877 47.7301 137.523 47.8417 137.132 47.8417C137.027 47.8318 136.923 47.8577 136.835 47.9151C136.747 47.9725 136.681 48.058 136.649 48.1576C136.574 48.3251 136.512 48.5116 136.481 48.6791C136.444 48.9023 136.5 48.9786 136.723 48.9514C136.891 48.9323 143.031 49.0821 144.184 48.9704C144.873 48.8955 145.546 48.803 146.231 48.5987C147.402 48.227 148.483 47.6865 149.338 46.7743C150.046 46.0296 150.454 45.1364 150.491 44.0949C150.545 43.8525 150.545 43.6116 150.545 43.3502L150.548 43.3406ZM141.524 35.7162L141.579 34.2281C141.579 33.949 141.69 33.8197 141.969 33.7625C142.416 33.6699 142.862 33.708 143.309 33.7257C143.756 33.7625 144.183 33.8183 144.63 33.949C145.447 34.1913 146.081 34.657 146.454 35.4371C146.623 35.7918 146.712 36.1796 146.714 36.5726C146.733 37.0941 146.695 37.5965 146.491 38.0975C146.175 38.7864 145.674 39.233 144.947 39.3637C144.22 39.4944 142.156 39.4386 141.84 39.4386C141.561 39.4386 141.54 39.4018 141.54 39.1227V37.3704C141.497 36.8256 141.49 36.2783 141.521 35.7326L141.524 35.7162ZM147.569 45.726C147.253 46.5633 146.676 47.1419 145.858 47.4551C145.411 47.6225 144.965 47.7274 144.496 47.6974C143.919 47.6784 143.343 47.6974 142.767 47.5858C141.986 47.4183 141.632 46.6736 141.576 46.1344C141.483 45.1854 141.539 44.2174 141.521 43.5108V41.0547C141.521 40.7551 141.558 40.6639 141.875 40.6639L143.625 40.683L144.816 40.8191C145.653 41.0057 146.416 41.3229 147.012 41.9723C147.496 42.4938 147.757 43.1255 147.813 43.8144C147.867 44.4652 147.832 45.0983 147.59 45.7124L147.569 45.726Z" fill="#C2BFBF"/>
<path d="M100.294 40.1207L100.777 40.1956C101.299 40.2146 101.913 40.0281 102.098 39.3024C102.2 38.9558 102.2 38.5871 102.098 38.2405C101.986 38.2405 101.93 38.333 101.874 38.3712C101.595 38.5944 101.28 38.7251 100.945 38.7619C100.275 38.8368 99.6049 38.7987 98.9541 38.5577L98.0419 38.2418C97.4056 38.0335 96.7361 37.9457 96.0677 37.9831C95.1187 38.058 94.2256 38.3739 93.3883 38.8205C92.4951 39.3038 91.8634 40.0295 91.5639 41.0165C91.3964 41.5938 91.3773 42.1874 91.4522 42.7838C91.6387 44.1425 92.3454 45.0915 93.6102 45.5939C93.6851 45.613 93.7409 45.6484 93.8144 45.6688C93.9819 45.7614 94.0009 45.8553 93.8512 45.9847L93.3855 46.3005L92.2691 46.9894C91.99 47.1569 91.9532 47.289 92.0458 47.5844C92.1566 47.932 92.3627 48.2415 92.6408 48.4776C92.8961 48.6966 93.1853 48.8728 93.4972 48.999C93.7014 49.0916 93.7014 49.1352 93.5162 49.2985L92.4543 50.061C92.1003 50.3333 91.7463 50.6056 91.4495 50.9541C91.2431 51.175 91.0943 51.4434 91.0164 51.7355C90.9385 52.0276 90.9339 52.3344 91.0029 52.6288C91.1413 53.2746 91.4795 53.8606 91.9696 54.3034C92.4534 54.7514 93.0418 55.0711 93.681 55.2333C94.7225 55.5329 95.8022 55.5492 96.8628 55.345C98.3877 55.0659 99.722 54.3919 100.77 53.2428C101.496 52.4804 101.924 51.5872 101.962 50.5198C102.002 49.9025 101.823 49.2908 101.455 48.7934C101.087 48.2961 100.554 47.9454 99.952 47.8036L98.9473 47.6171L95.8771 47.3448C95.5422 47.3257 95.2072 47.2699 94.9281 47.1024C94.5741 46.8792 94.4815 46.4516 94.7048 46.1725C94.8723 45.9683 95.0765 45.8376 95.3379 45.8186L95.9329 45.7641C97.1095 45.6444 98.2142 45.1411 99.0766 44.3318C99.5371 43.9056 99.8663 43.3567 100.026 42.7497C100.249 41.9492 100.249 41.1159 100.062 40.299C100.008 40.0948 100.026 40.0758 100.286 40.1125L100.294 40.1207ZM95.7328 49.3884C95.8444 49.4075 95.956 49.3884 96.0677 49.3884C96.8492 49.4252 97.6497 49.481 98.4122 49.6879C98.6611 49.7615 98.9038 49.8548 99.1379 49.967C99.8826 50.3755 100.162 51.0835 100.068 51.8459C99.9561 52.6832 99.4905 53.2782 98.7648 53.6703C98.2815 53.9426 97.741 54.0611 97.1828 54.1169C96.9785 54.136 96.792 54.1169 96.5878 54.1169C95.937 54.136 95.3039 54.0624 94.6899 53.801C94.2623 53.6336 93.9084 53.3926 93.5925 53.0563C92.9417 52.4055 92.6394 51.2142 93.6115 50.2461C94.2065 49.7015 94.8777 49.3162 95.7328 49.3884ZM97.854 43.583C97.4632 44.5687 96.6068 44.8669 95.7518 44.7362C94.9703 44.6245 94.393 44.197 94.0227 43.489C93.5394 42.5401 93.41 41.5557 93.6878 40.5305C93.892 39.7681 94.3576 39.1908 95.1759 39.0601C96.2175 38.8735 97.2182 39.2466 97.7437 40.2881C98.016 40.7919 98.1344 41.4046 98.1344 42.2787C98.1154 42.6326 98.0419 43.116 97.8553 43.5816L97.854 43.583ZM74.4117 42.3168C74.2442 41.312 73.8725 40.3998 73.1836 39.6374C72.1598 38.5019 70.8582 38.0036 69.3878 37.9995C68.1039 37.9804 66.8962 38.3535 65.8152 39.0233C64.7524 39.6593 63.9735 40.678 63.6382 41.8702C63.3223 42.9499 63.3386 44.0486 63.5837 45.1446C64.2345 48.0855 66.5055 49.3489 69.2203 49.1638C70.0209 49.1093 70.7833 48.8479 71.5076 48.4939C72.5873 47.9901 73.3688 47.1909 73.9079 46.1303C74.3354 45.2563 74.5206 44.325 74.5029 43.2644L74.4103 42.3154L74.4117 42.3168ZM71.7704 46.4476C71.6373 46.8662 71.3851 47.237 71.0447 47.5146C70.7042 47.7922 70.2903 47.9645 69.8534 48.0106C69.0365 48.1222 68.2713 47.918 67.5838 47.4333C67.0874 47.0682 66.6855 46.5897 66.4115 46.0378C65.6491 44.4748 65.5184 42.8382 65.9078 41.1636C66.0331 40.6453 66.3043 40.1738 66.6893 39.8048C67.3782 39.1717 68.1774 39.0233 69.0719 39.2098C69.9296 39.3964 70.5791 39.8606 71.1141 40.5686C71.6492 41.2766 71.8956 42.0935 72.044 42.9512C72.1189 43.3788 72.1189 43.8253 72.1366 44.1044C72.1366 44.9976 72.0617 45.7382 71.7826 46.4489L71.7704 46.4476ZM115.066 42.4665C114.93 41.3869 114.527 40.4012 113.763 39.5829C112.758 38.4855 111.455 38.0199 110.005 38.0008C108.758 37.9818 107.605 38.3358 106.544 38.9498C105.353 39.6578 104.535 40.6612 104.219 42.02C103.842 43.5024 104 45.0704 104.666 46.4476C105.278 47.7505 106.321 48.5878 107.699 48.9595C109.224 49.368 110.677 49.1828 112.09 48.4939C113.318 47.8989 114.192 46.969 114.694 45.7028C114.994 44.9581 115.103 44.1589 115.122 43.2276C115.141 43.0602 115.103 42.762 115.067 42.4652L115.066 42.4665ZM112.498 46.2066C112.199 47.2114 111.568 47.8622 110.508 48.0119C109.726 48.1236 108.983 47.937 108.312 47.4905C107.734 47.0997 107.326 46.5783 107.028 45.9656C106.693 45.3148 106.506 44.6259 106.433 43.9193C106.321 43.0452 106.321 42.1902 106.525 41.3147C106.564 41.1421 106.62 40.9738 106.693 40.8123C107.214 39.5094 108.367 38.9144 109.726 39.2126C110.638 39.4168 111.326 39.9205 111.847 40.683C112.351 41.4277 112.592 42.246 112.705 43.1337C112.76 43.4877 112.78 43.8594 112.76 44.1752C112.76 44.9009 112.705 45.5708 112.487 46.2216L112.498 46.2066Z" fill="#47474A"/>
</svg>
