<svg width="160" height="81" viewBox="0 0 160 81" fill="none" xmlns="http://www.w3.org/2000/svg">
<path fill-rule="evenodd" clip-rule="evenodd" d="M24.0007 60.6372H27.7496V45.7857L33.6043 58.7343C34.2675 60.2908 35.2203 60.8673 37.065 60.8673C38.9097 60.8673 39.8056 60.2901 40.4907 58.7343L46.3164 45.7857V60.6372H50.0944V45.7857C50.0944 44.3443 49.5172 43.6508 48.3059 43.2759C45.4509 42.4111 43.5474 43.1608 42.6825 45.0922L36.9441 57.8966L31.4067 45.0922C30.5703 43.1608 28.6377 42.4111 25.7543 43.2759C24.5714 43.6508 23.9948 44.3437 23.9948 45.7857L23.9942 60.6372H24.0007ZM53.215 48.5541H56.993V56.7157C56.9646 57.1766 57.1372 58.2153 59.1907 58.2431C60.2572 58.2722 67.3232 58.2431 67.3801 58.2431V48.4959H71.1581V61.8485C71.1581 65.1359 67.086 65.856 65.1883 65.8857H53.3081V63.3778H65.2187C67.6412 63.118 67.3529 61.9073 67.3529 61.5033V60.5222H59.3639C55.6434 60.4931 53.2493 58.8494 53.2215 56.9749V48.5528L53.215 48.5541ZM134.252 39.0946C131.946 39.0364 130.157 39.2678 128.657 39.9025C128.226 40.077 127.533 40.077 127.476 40.6239C127.707 40.8533 127.734 41.2289 127.937 41.5469C128.282 42.1241 128.889 42.9016 129.436 43.305C130.043 43.7671 130.648 44.228 131.282 44.632C132.406 45.3236 133.675 45.7275 134.771 46.4198C135.405 46.8238 136.039 47.3428 136.674 47.7759C136.997 48.0066 137.193 48.3822 137.597 48.5257V48.4384C137.396 48.1799 137.337 47.805 137.136 47.5154C136.847 47.2278 136.559 46.9673 136.27 46.6796C135.434 45.555 134.396 44.5738 133.271 43.7671C132.348 43.1324 130.33 42.2676 129.955 41.2011L129.898 41.1429C130.532 41.0847 131.282 40.854 131.888 40.6807C132.869 40.4222 133.762 40.4791 134.771 40.2199C135.233 40.1035 135.694 39.96 136.156 39.8159V39.5574C135.637 39.0383 135.262 38.3461 134.714 37.8561C133.244 36.5873 131.628 35.3469 129.955 34.3089C129.061 33.7323 127.908 33.3568 126.956 32.8675C126.609 32.6943 126.033 32.6076 125.831 32.3194C125.311 31.6859 125.023 30.8489 124.649 30.0985C123.813 28.5123 123.005 26.7535 122.284 25.0807C121.765 23.9561 121.447 22.8314 120.814 21.7933C117.843 16.8907 114.613 13.9206 109.652 11.0075C108.586 10.4018 107.317 10.1413 105.968 9.82461L103.805 9.70826C103.343 9.5066 102.882 8.95848 102.478 8.69864C100.835 7.66058 96.5951 5.41124 95.3832 8.38192C94.6043 10.2564 96.5369 12.1017 97.193 13.0538C97.6842 13.717 98.3177 14.4668 98.6648 15.2166C98.8587 15.7065 98.9233 16.2262 99.1256 16.7452C99.5865 18.014 100.02 19.4276 100.625 20.6105C100.948 21.2161 101.288 21.8515 101.692 22.399C101.922 22.7157 102.326 22.8605 102.412 23.3795C102.008 23.9567 101.981 24.8209 101.75 25.5429C100.711 28.8019 101.115 32.8391 102.586 35.2319C103.048 35.9526 104.137 37.5394 105.614 36.9331C106.912 36.4141 106.623 34.7704 106.998 33.3283C107.085 32.9825 107.027 32.7518 107.199 32.5204V32.5786L108.382 34.9721C109.276 36.385 110.834 37.8561 112.131 38.8373C112.823 39.3563 113.371 40.2509 114.236 40.5676V40.4804H114.179C114.006 40.2218 113.746 40.1055 113.515 39.9038C112.996 39.3848 112.419 38.75 112.015 38.1735C110.805 36.5589 109.738 34.7704 108.786 32.925C108.324 32.0311 107.92 31.0506 107.546 30.1566C107.372 29.8102 107.372 29.2905 107.084 29.1186C106.651 29.752 106.018 30.3014 105.699 31.0796C105.151 32.3194 105.094 33.848 104.892 35.4342C104.776 35.4633 104.828 35.4342 104.776 35.4924C103.854 35.2623 103.536 34.3095 103.191 33.5029C102.326 31.4552 102.181 28.1678 102.931 25.8027C103.132 25.1971 103.999 23.2935 103.653 22.717C103.478 22.1689 102.903 21.8522 102.585 21.4191C102.21 20.871 101.807 20.1794 101.548 19.5737C100.856 17.9578 100.51 16.1706 99.7597 14.5553C99.4126 13.8056 98.8076 13.0267 98.317 12.3351C97.7689 11.5562 97.1646 11.0081 96.7315 10.0857C96.5873 9.76902 96.3857 9.24934 96.6164 8.90289C96.6733 8.67214 96.7897 8.58618 97.0191 8.528C97.394 8.21129 98.4618 8.61462 98.8367 8.78655C99.9032 9.21961 100.797 9.62295 101.691 10.2279C102.095 10.5162 102.528 11.0643 103.047 11.2091H103.653C104.576 11.4108 105.614 11.2673 106.478 11.5258C108.007 12.0171 109.391 12.7371 110.632 13.5166C114.409 15.9101 117.524 19.3132 119.629 23.3802C119.975 24.0433 120.119 24.649 120.437 25.3412C121.043 26.7548 121.793 28.1962 122.397 29.5814C123.004 30.9368 123.58 32.322 124.445 33.4466C124.878 34.0523 126.608 34.369 127.386 34.6864C127.963 34.9449 128.856 35.1776 129.377 35.4943C130.357 36.1 131.337 36.7922 132.26 37.4554C132.72 37.8005 134.163 38.5219 134.249 39.0971L134.252 39.0946ZM104.843 14.0337C104.444 14.0302 104.047 14.0787 103.661 14.1779V14.236H103.718C103.949 14.6975 104.353 15.0149 104.641 15.4189L105.305 16.8034L105.362 16.7452C105.766 16.457 105.968 15.9954 105.968 15.3038C105.795 15.1022 105.766 14.8999 105.622 14.6982C105.449 14.4099 105.074 14.2651 104.843 14.035V14.0337Z" fill="#00678C"/>
<path fill-rule="evenodd" clip-rule="evenodd" d="M74.037 60.6373H84.8804C86.1492 60.6373 87.3611 60.3787 88.341 59.9166C89.9847 59.1668 90.7636 58.1585 90.7636 56.8315V54.0631C90.7636 52.9966 89.8697 51.9863 88.0825 51.2947C87.1595 50.9489 86.0057 50.7466 84.8811 50.7466H80.3242C78.7955 50.7466 78.0748 50.2845 77.8725 49.2761C77.8441 49.1611 77.8441 49.0454 77.8441 48.9303V47.2284C77.8441 47.1412 77.8441 47.0268 77.8725 46.9117C78.0742 46.1329 78.4782 45.9305 79.8116 45.7871H90.9142V43.2772H80.3591C78.8304 43.2772 78.0231 43.3645 77.3018 43.5952C75.0809 44.2868 74.1003 45.3831 74.1003 47.3144V49.5075C74.1003 51.2075 76.0039 52.6508 79.2338 52.9966C79.5796 53.0257 79.9545 53.0257 80.3294 53.0257H84.2231C84.3672 53.0257 84.5107 53.0257 84.6257 53.0548C85.8086 53.1698 86.3276 53.3715 86.6734 53.8033C86.9042 54.034 86.9623 54.2363 86.9623 54.4962V56.6873C86.9623 56.9459 86.7891 57.2936 86.4433 57.5813C86.0975 57.8689 85.5481 58.0712 84.8274 58.1003C84.6833 58.1003 84.5979 58.1294 84.4525 58.1294H74.037V60.6373ZM114.238 56.2834C114.238 58.8494 116.177 60.2908 120.035 60.5804C120.41 60.6095 120.756 60.6373 121.131 60.6373H130.936V58.1294H121.045C118.852 58.1294 118.016 57.5813 118.016 56.2549V43.2772H114.231V56.284L114.238 56.2834ZM93.1565 56.3978V47.4585C93.1565 45.1801 94.7711 43.795 97.9156 43.3632C98.2614 43.3341 98.6072 43.305 98.924 43.305H106.075C106.45 43.305 106.768 43.3341 107.143 43.3632C110.286 43.795 111.872 45.1795 111.872 47.4585V56.3978C111.872 58.2431 111.209 59.2243 109.651 59.8881L113.342 63.2324H108.988L105.989 60.5222L102.96 60.6954H98.9227C98.1829 60.6918 97.4465 60.5951 96.7308 60.4078C94.3393 59.7433 93.1565 58.4752 93.1565 56.3978ZM97.2221 56.1974C97.2221 56.3124 97.2867 56.4269 97.3093 56.5723C97.511 57.6097 98.4909 58.1869 99.9905 58.1869H103.394L100.28 55.3604H104.634L107.373 57.8411C107.894 57.5522 108.21 57.1482 108.325 56.6292C108.354 56.5141 108.354 56.3706 108.354 56.2543V47.6887C108.354 47.5736 108.354 47.4592 108.325 47.3429C108.124 46.363 107.144 45.8155 105.673 45.8155H99.9911C98.3183 45.8155 97.2227 46.5362 97.2227 47.6887L97.2221 56.1974Z" fill="#CE8B2C"/>
</svg>
