<svg width="160" height="81" viewBox="0 0 160 81" fill="none" xmlns="http://www.w3.org/2000/svg">
<path d="M142.379 34.3552C142.017 34.3552 141.665 34.4298 141.354 34.6059L131.506 40.2929C130.869 40.6599 130.482 41.3536 130.482 42.0911V53.4446C130.482 54.1819 130.869 54.8743 131.506 55.2425L134.078 56.7246C135.328 57.3406 135.789 57.3307 136.357 57.3307C138.207 57.3307 139.263 56.2082 139.263 54.2571V43.0561C139.263 42.8978 139.126 42.7844 138.971 42.7844H137.737C137.579 42.7844 137.444 42.9007 137.444 43.0561V54.2629C137.444 55.1277 136.544 55.9978 135.082 55.2666L132.408 53.6986C132.314 53.6472 132.241 53.5533 132.241 53.4478V42.0943C132.241 41.9868 132.313 41.8769 132.408 41.8226L142.235 36.156C142.328 36.1031 142.437 36.1031 142.528 36.156L152.355 41.8226C152.449 41.8787 152.522 41.9833 152.522 42.0943V53.4478C152.522 53.5562 152.468 53.6672 152.376 53.7195L142.528 59.3861C142.441 59.4364 142.325 59.4364 142.236 59.3861L139.706 57.8808C139.63 57.8367 139.528 57.8402 139.455 57.8808C138.757 58.2766 138.625 58.3225 137.971 58.5498C137.809 58.6059 137.564 58.6933 138.054 58.9682L141.358 60.9152C141.672 61.0971 142.023 61.1869 142.382 61.1869C142.747 61.1869 143.092 61.0997 143.407 60.9152L153.255 55.2486C153.892 54.8778 154.279 54.188 154.279 53.4507V42.0972C154.279 41.3597 153.892 40.6675 153.255 40.299L143.407 34.612C143.099 34.4359 142.745 34.3613 142.382 34.3613L142.379 34.3552ZM145.013 42.468C142.209 42.468 140.539 43.6615 140.539 45.6459C140.539 47.7963 142.197 48.3903 144.888 48.6565C148.108 48.9718 148.359 49.4446 148.359 50.0784C148.359 51.1777 147.482 51.6464 145.411 51.6464C142.808 51.6464 142.236 50.9966 142.045 49.6994C142.022 49.5605 141.915 49.4486 141.773 49.4486H140.494C140.417 49.4504 140.344 49.4817 140.289 49.5362C140.235 49.5908 140.203 49.6642 140.202 49.7413C140.202 51.3985 141.103 53.3583 145.408 53.3583C148.524 53.3583 150.321 52.1378 150.321 49.9921C150.321 47.8707 148.869 47.2974 145.847 46.8972C142.796 46.4904 142.502 46.2957 142.502 45.58C142.502 44.9895 142.749 44.1996 145.011 44.1996C147.031 44.1996 147.778 44.6355 148.084 45.9978C148.111 46.1257 148.224 46.2303 148.356 46.2303H149.635C149.713 46.2303 149.789 46.1821 149.844 46.1257C149.897 46.0655 149.935 45.9978 149.927 45.9165C149.73 43.5702 148.165 42.4665 145.014 42.4665L145.013 42.468Z" fill="#83CD29"/>
<path d="M84.4835 19.4718C84.3735 19.472 84.2654 19.5008 84.17 19.5554C84.075 19.611 83.9961 19.6904 83.9411 19.7857C83.8861 19.8811 83.8569 19.9891 83.8564 20.0991V36.0941C83.8564 36.251 83.7832 36.3916 83.6472 36.4704C83.5805 36.5092 83.5048 36.5297 83.4276 36.5297C83.3505 36.5297 83.2747 36.5092 83.2081 36.4704L80.5945 34.9651C80.4038 34.8548 80.1875 34.7967 79.9672 34.7967C79.747 34.7967 79.5306 34.8548 79.34 34.9651L68.9071 40.9865C68.5171 41.2114 68.2794 41.6444 68.2794 42.0946V54.1377C68.2791 54.358 68.3369 54.5746 68.4471 54.7655C68.5572 54.9564 68.7158 55.1148 68.9068 55.2248L79.34 61.2465C79.5305 61.3571 79.7469 61.4153 79.9672 61.4153C80.1875 61.4153 80.4039 61.3571 80.5945 61.2465L91.0277 55.2248C91.2187 55.1148 91.3772 54.9564 91.4874 54.7655C91.5976 54.5746 91.6554 54.358 91.6551 54.1377V24.1134C91.6551 23.6566 91.4058 23.228 91.0071 23.0054L84.7973 19.5342C84.6997 19.4799 84.5916 19.4703 84.4835 19.4715V19.4718ZM17.3678 34.5048C17.1687 34.5129 16.9819 34.5475 16.8031 34.6513L6.37021 40.6727C6.17909 40.7825 6.02041 40.9409 5.91028 41.1318C5.80014 41.3227 5.74247 41.5394 5.74311 41.7598L5.76432 57.9224C5.76432 58.1473 5.88056 58.3559 6.07816 58.4658C6.27199 58.582 6.51231 58.582 6.70527 58.4658L12.8941 54.9112C13.2864 54.6788 13.5421 54.2731 13.5421 53.8244V46.2762C13.5421 45.8258 13.7789 45.4131 14.1698 45.1894L16.8043 43.6632C16.9947 43.5525 17.2112 43.4947 17.4314 43.4958C17.6517 43.4945 17.8684 43.5523 18.0588 43.6632L20.6922 45.1885C21.0824 45.4123 21.3193 45.8255 21.3193 46.2753V53.8232C21.3193 54.2725 21.5808 54.6805 21.9673 54.9101L28.1561 58.4646C28.3508 58.5809 28.5905 58.5809 28.7832 58.4646C28.975 58.3542 29.097 58.1458 29.097 57.9212L29.118 41.7592C29.1192 41.5387 29.0618 41.3218 28.9516 41.1307C28.8414 40.9397 28.6824 40.7814 28.4909 40.6721L18.0579 34.651C17.8815 34.5475 17.6938 34.5126 17.4933 34.5045H17.3683L17.3678 34.5048ZM111.121 34.6513C110.9 34.6507 110.684 34.7084 110.493 34.8186L100.06 40.8403C99.6706 41.0656 99.4323 41.4773 99.4323 41.9272V53.9703C99.4323 54.423 99.6874 54.8333 100.08 55.0571L110.43 60.9562C110.812 61.1741 111.278 61.1907 111.663 60.9765L117.936 57.4847C118.135 57.3743 118.27 57.168 118.27 56.9413C118.271 56.7147 118.153 56.5107 117.956 56.3979L107.46 50.3762C107.264 50.264 107.126 50.0371 107.126 49.8116V46.0458C107.126 45.8208 107.265 45.6145 107.46 45.5024L110.722 43.6205C110.916 43.5083 111.154 43.5083 111.349 43.6205L114.612 45.5024C114.708 45.5572 114.787 45.6364 114.842 45.7318C114.897 45.8273 114.926 45.9356 114.926 46.0458V49.0148C114.926 49.125 114.954 49.2333 115.01 49.3287C115.065 49.4241 115.144 49.5033 115.239 49.5582C115.435 49.6709 115.672 49.6715 115.867 49.5582L122.118 45.9208C122.506 45.6953 122.746 45.2824 122.746 44.834V41.928C122.746 41.7077 122.688 41.4913 122.578 41.3004C122.468 41.1096 122.309 40.9511 122.119 40.8409L111.748 34.8192C111.558 34.7089 111.341 34.6511 111.121 34.6518L111.121 34.6513ZM79.9252 43.6423C79.9836 43.642 80.0411 43.6563 80.0926 43.6838L83.6678 45.7537C83.7649 45.8098 83.8352 45.9135 83.8352 46.0254V50.1652C83.8352 50.2777 83.7654 50.3811 83.6678 50.4369L80.0926 52.5068C79.9953 52.5621 79.8764 52.5621 79.7788 52.5068L76.2036 50.4369C76.1062 50.3809 76.0362 50.2771 76.0362 50.1652V46.0248C76.0362 45.9127 76.1065 45.8098 76.2036 45.7531L79.7788 43.6835C79.8276 43.6553 79.8706 43.642 79.9252 43.642V43.6417V43.6423Z" fill="#404137"/>
<path d="M48.7096 34.5882C48.4893 34.5878 48.2727 34.6455 48.0819 34.7556L37.6487 40.7564C37.2587 40.9813 37.0215 41.4146 37.0215 41.8644V53.9075C37.021 54.1279 37.0787 54.3445 37.1888 54.5353C37.2989 54.7262 37.4576 54.8846 37.6487 54.9943L48.0819 61.016C48.2724 61.1266 48.4888 61.1849 48.7091 61.1849C48.9294 61.1849 49.1458 61.1266 49.3364 61.016L59.7696 54.9943C59.9606 54.8843 60.1191 54.7259 60.2293 54.535C60.3395 54.3442 60.3973 54.1276 60.397 53.9072V41.8641C60.397 41.4137 60.1599 40.9807 59.7693 40.7561L49.3361 34.7553C49.1454 34.6447 48.9288 34.587 48.7084 34.5879L48.7096 34.5882ZM111.1 45.3353C111.059 45.3353 111.012 45.3353 110.975 45.3556L108.968 46.5267C108.93 46.5475 108.899 46.5777 108.877 46.6144C108.855 46.651 108.843 46.6929 108.842 46.7356V49.0357C108.842 49.1223 108.892 49.2013 108.968 49.2449L110.975 50.3948C111.009 50.4162 111.049 50.4275 111.089 50.4275C111.13 50.4275 111.17 50.4162 111.204 50.3948L113.211 49.2449C113.286 49.2022 113.337 49.1223 113.337 49.0357V46.7356C113.337 46.649 113.286 46.57 113.211 46.5264L111.204 45.3553C111.167 45.3332 111.142 45.335 111.1 45.335L111.1 45.3353Z" fill="#83CD29"/>
</svg>
