<svg width="160" height="81" viewBox="0 0 160 81" fill="none" xmlns="http://www.w3.org/2000/svg">
<path d="M34.7205 45.1714C37.2798 45.1714 39.3546 43.0966 39.3546 40.5373C39.3546 37.978 37.2798 35.9032 34.7205 35.9032C32.1612 35.9032 30.0864 37.978 30.0864 40.5373C30.0864 43.0966 32.1612 45.1714 34.7205 45.1714Z" fill="#00D8FF"/>
<path fill-rule="evenodd" clip-rule="evenodd" d="M34.7206 31.1152C40.9425 31.1152 46.7225 32.008 51.0806 33.5084C56.3314 35.3161 59.5599 38.0562 59.5599 40.5373C59.5599 43.1228 56.1384 46.0338 50.4996 47.9021C46.2366 49.3144 40.6268 50.0518 34.7206 50.0518C28.6652 50.0518 22.931 49.3597 18.6199 47.8865C13.1657 46.0223 9.88049 43.0736 9.88049 40.5373C9.88049 38.0763 12.963 35.3574 18.1401 33.5524C22.5144 32.0273 28.4371 31.1152 34.7198 31.1152H34.7206Z" stroke="#00D8FF" stroke-width="1.66272"/>
<path fill-rule="evenodd" clip-rule="evenodd" d="M26.5184 35.8534C29.6267 30.4636 33.2875 25.9026 36.7644 22.8768C40.9536 19.2312 44.9401 17.8035 47.0894 19.0429C49.3292 20.3345 50.1416 24.7528 48.943 30.5707C48.0378 34.9693 45.8731 40.1971 42.9225 45.3135C39.8973 50.5592 36.4333 55.1808 33.0037 58.1785C28.664 61.9721 24.4684 63.3449 22.2713 62.0778C20.1394 60.8493 19.3241 56.8199 20.3468 51.4334C21.211 46.8821 23.3796 41.2959 26.5174 35.8533L26.5184 35.8534Z" stroke="#00D8FF" stroke-width="1.66272"/>
<path fill-rule="evenodd" clip-rule="evenodd" d="M26.5262 45.3272C23.409 39.9435 21.2867 34.493 20.4009 29.9697C19.3345 24.5197 20.0885 20.3527 22.2358 19.1097C24.4734 17.8143 28.707 19.317 33.1488 23.261C36.5071 26.2428 39.9556 30.7282 42.9148 35.8397C45.9487 41.0804 48.2225 46.3897 49.1071 50.858C50.2264 56.5124 49.3205 60.8328 47.1254 62.1035C44.9956 63.3365 41.0981 62.0311 36.9422 58.4548C33.4308 55.4332 29.6741 50.7644 26.5262 45.3271V45.3272Z" stroke="#00D8FF" stroke-width="1.66272"/>
<path fill-rule="evenodd" clip-rule="evenodd" d="M86.16 52.377L80.48 43.7957C83.3507 43.5424 85.9373 41.4624 85.9373 37.6624C85.9373 33.7957 83.1933 31.321 79.344 31.321H70.8907V52.361H73.5093V44.001H77.7053L83.068 52.361L86.16 52.377ZM79.0307 41.7144H73.5107V33.6704H79.0307C81.524 33.6704 83.2267 35.3104 83.2267 37.677C83.2267 40.0437 81.5227 41.717 79.0307 41.717V41.7144ZM95.908 52.7544C98.4013 52.7544 100.451 51.9344 101.965 50.421L100.829 48.8744C99.6293 50.105 97.864 50.7984 96.1293 50.7984C92.8493 50.7984 90.8293 48.401 90.64 45.5317H102.973V44.9317C102.973 40.3584 100.26 36.761 95.6533 36.761C91.3 36.761 88.1467 40.3264 88.1467 44.7424C88.1467 49.5064 91.396 52.7424 95.9067 52.7424L95.908 52.7544ZM100.641 43.7944H90.6413C90.768 41.461 92.3747 38.7144 95.6253 38.7144C99.096 38.7144 100.609 41.5224 100.641 43.7944ZM118.687 52.3757V41.9024C118.687 38.2117 116.007 36.7597 112.788 36.7597C110.295 36.7597 108.34 37.5797 106.7 39.2837L107.804 40.9237C109.16 39.473 110.644 38.8104 112.473 38.8104C114.681 38.8104 116.323 39.977 116.323 42.0277V44.7717C115.092 43.3517 113.357 42.689 111.275 42.689C108.688 42.689 105.941 44.2984 105.941 47.705C105.941 51.017 108.685 52.753 111.275 52.753C113.325 52.753 115.061 52.0277 116.323 50.6397V52.373L118.687 52.3757ZM112.127 51.0504C109.919 51.0504 108.372 49.6637 108.372 47.7384C108.372 45.7824 109.919 44.3944 112.127 44.3944C113.799 44.3944 115.407 45.025 116.323 46.2877V49.1584C115.408 50.4197 113.799 51.0517 112.127 51.0517V51.0504ZM130.127 52.7544C132.903 52.7544 134.543 51.6184 135.711 50.105L134.133 48.6544C133.124 50.0104 131.831 50.641 130.267 50.641C127.017 50.641 125 48.117 125 44.7424C125 41.3677 127.019 38.8757 130.267 38.8757C131.844 38.8757 133.137 39.4757 134.133 40.8624L135.711 39.4117C134.544 37.897 132.903 36.7624 130.127 36.7624C125.584 36.7624 122.524 40.233 122.524 44.7437C122.524 49.2864 125.584 52.7437 130.127 52.7437V52.7544ZM142.873 52.7544C144.26 52.7544 145.113 52.3437 145.713 51.777L145.02 50.0104C144.704 50.357 144.087 50.641 143.411 50.641C142.371 50.641 141.864 49.821 141.864 48.685V39.221H144.957V37.1397H141.864V32.9757H139.497V37.1397H136.973V39.2224H139.497V49.1917C139.497 51.4637 140.633 52.757 142.873 52.757V52.7544Z" fill="#00D8FF"/>
</svg>
