<svg width="160" height="81" viewBox="0 0 160 81" fill="none" xmlns="http://www.w3.org/2000/svg">
<path d="M116.16 46.1557C112.656 46.1757 109.623 47.017 107.077 48.2704C106.137 46.4104 105.197 44.7864 105.041 43.573C104.865 42.1637 104.649 41.3024 104.865 39.6184C105.081 37.9344 106.06 35.5464 106.06 35.3517C106.04 35.1757 105.847 34.3144 103.828 34.2944C101.809 34.2744 100.068 34.6864 99.8733 35.2277C99.5241 36.2053 99.243 37.2059 99.032 38.2224C98.68 40.0624 95 46.5824 92.9053 50.0064C92.22 48.6757 91.6333 47.4997 91.516 46.561C91.34 45.1517 91.124 44.2904 91.34 42.6064C91.556 40.9224 92.5347 38.5344 92.5347 38.3397C92.5147 38.1637 92.3213 37.3024 90.3027 37.2824C88.284 37.2624 86.5427 37.6744 86.348 38.2157C86.1533 38.757 85.9373 39.997 85.508 41.2104C85.0973 42.4104 80.204 53.3077 78.9307 56.1437C78.2853 57.5917 77.7307 58.7477 77.304 59.5304C76.8773 60.313 77.284 59.589 77.2453 59.6677L76.6987 60.705V60.725C76.424 61.2144 76.1307 61.685 75.992 61.685C75.8947 61.685 75.6987 60.373 76.032 58.573C76.756 54.7957 78.5173 48.9037 78.4987 48.6877C78.4987 48.5904 78.832 47.5544 77.3653 47.0237C75.936 46.4957 75.428 47.3757 75.312 47.3757C75.196 47.3757 75.0987 47.689 75.0987 47.689C75.0987 47.689 76.6853 41.053 72.064 41.053C69.1667 41.053 65.1733 44.205 63.1973 47.0824L53.2147 52.5437L53.0013 52.309C47.4013 46.3384 37.048 42.109 37.4787 34.085C37.6347 31.169 38.652 23.4757 57.3667 14.1584C72.6933 6.52504 84.9667 8.61838 87.1 13.2784C90.1347 19.9317 80.5427 32.305 64.6093 34.0864C58.5427 34.7717 55.3507 32.4224 54.548 31.5424C53.708 30.609 53.588 30.5824 53.276 30.7597C52.7667 31.0344 53.08 31.8557 53.276 32.3464C53.7453 33.5797 55.7027 35.773 59.0307 36.8664C61.9467 37.8264 69.0707 38.3544 77.684 35.0264C87.328 31.2464 94.864 20.8864 92.6533 12.213C90.4 3.38504 75.76 0.489042 61.92 5.40238C53.68 8.33971 44.7547 12.9184 38.3333 18.9264C30.7 26.0517 29.4853 32.2757 29.9947 34.8597C31.776 44.0797 44.48 50.089 49.568 54.5317L48.8613 54.9237C46.3173 56.177 36.628 61.2464 34.2 66.609C31.46 72.6757 34.6307 77.0424 36.744 77.629C43.2813 79.449 49.976 76.181 53.5973 70.797C57.1973 65.4144 56.768 58.4264 55.104 55.237L55.0453 55.1197L57.0413 53.9464C58.2556 53.2331 59.4825 52.5415 60.7213 51.8717C60.0947 53.5744 59.6453 55.5917 59.4093 58.525C59.1347 61.9704 60.5427 66.4317 62.404 68.1944C63.2267 68.9584 64.204 68.977 64.812 68.977C66.9653 68.977 67.9453 67.1957 69.02 65.0624C70.3507 62.4584 71.5267 59.445 71.5267 59.445C71.5267 59.445 70.06 67.6077 74.0707 67.6077C75.5373 67.6077 77.0067 65.709 77.6707 64.7304V64.7504C77.6707 64.7504 77.7107 64.6917 77.788 64.5544C77.944 64.3197 78.0227 64.181 78.0227 64.181V64.141C78.6093 63.1237 79.9213 60.8077 81.8787 56.937C84.404 51.9637 86.8307 45.741 86.8307 45.741C86.8307 45.741 87.0653 47.2677 87.7907 49.773C88.2213 51.261 89.1613 52.885 89.884 54.4704L88.944 55.7637L88.964 55.7837C88.4947 56.4104 87.964 57.077 87.4173 57.741C85.4213 60.1277 83.0333 62.8504 82.72 63.6344C82.3467 64.5677 82.4267 65.2397 83.1507 65.7877C83.6787 66.1797 84.6173 66.257 85.6173 66.1797C87.4173 66.0624 88.684 65.6117 89.2973 65.3397C90.4272 64.937 91.4947 64.3768 92.468 63.6757C94.4253 62.2277 95.62 60.1717 95.5027 57.4317C95.444 55.925 94.956 54.437 94.348 53.0277L94.876 52.245C97.9693 47.725 100.356 42.7517 100.356 42.7517C100.356 42.7517 100.591 44.2784 101.316 46.7837C101.689 48.0557 102.432 49.4464 103.097 50.8157C100.2 53.1837 98.38 55.925 97.7533 57.725C96.5987 61.053 97.5 62.5597 99.2013 62.925C99.9653 63.081 101.061 62.729 101.881 62.3784C102.899 62.045 104.132 61.4784 105.268 60.6357C107.225 59.1877 109.104 57.1717 109.007 54.449C108.948 53.1957 108.615 51.9637 108.167 50.789C110.633 49.7717 113.824 49.1837 117.876 49.673C126.587 50.6904 128.309 56.133 127.976 58.4037C127.643 60.6744 125.823 61.9277 125.216 62.3184C124.609 62.6917 124.413 62.8277 124.472 63.101C124.552 63.5117 124.824 63.493 125.352 63.4144C126.076 63.297 129.932 61.5544 130.089 57.3664C130.324 51.9837 125.215 46.113 116.152 46.1704L116.16 46.1557ZM48.9827 68.8024C46.1053 71.9544 42.0533 73.149 40.3293 72.1304C38.4693 71.0544 39.196 66.4144 42.7373 63.0677C44.8907 61.0317 47.6893 59.153 49.5293 57.9984L51.3107 56.9224C51.428 56.8424 51.5067 56.805 51.5067 56.805C51.644 56.725 51.8 56.629 51.9573 56.5304C53.2693 61.3064 52.016 65.4957 48.984 68.8037L48.9827 68.8024ZM70.0253 54.493C69.0253 56.9397 66.9133 63.2237 65.6413 62.8704C64.5453 62.577 63.8813 57.8197 65.428 53.1237C66.2107 50.7557 67.8747 47.9237 68.8547 46.8397C70.4413 45.0797 72.1613 44.4904 72.5933 45.2157C73.1027 46.1557 70.656 52.9677 70.0293 54.4957L70.0253 54.493ZM87.3867 62.793C86.956 63.0064 86.564 63.1664 86.3867 63.0464C86.2493 62.9664 86.5627 62.673 86.5627 62.673C86.5627 62.673 88.736 60.3437 89.5973 59.2677L91.3 57.0944V57.329C91.3 60.1477 88.5987 62.0264 87.3853 62.7904L87.3867 62.793ZM100.776 59.7264C100.463 59.4917 100.501 58.7664 101.559 56.497C101.969 55.597 102.909 54.089 104.532 52.661C104.728 53.2477 104.845 53.8157 104.825 54.345C104.805 57.869 102.3 59.1797 100.772 59.7277L100.776 59.7264Z" fill="#CF649A"/>
</svg>
