<svg width="160" height="81" viewBox="0 0 160 81" fill="none" xmlns="http://www.w3.org/2000/svg">
<path fill-rule="evenodd" clip-rule="evenodd" d="M23.1507 35.921C24.7027 29.7077 28.5867 26.601 34.7987 26.601C44.1187 26.601 45.2813 33.5877 49.94 34.7543C53.0467 35.5317 55.764 34.3677 58.0933 31.261C56.5413 37.473 52.6573 40.5797 46.4467 40.5797C37.1267 40.5797 35.964 33.593 31.3053 32.4263C28.1987 31.649 25.4813 32.813 23.152 35.9197L23.1507 35.921ZM11.5027 49.8997C13.0573 43.6863 16.9373 40.5797 23.1507 40.5797C32.4707 40.5797 33.6333 47.5663 38.292 48.733C41.3987 49.5103 44.116 48.3463 46.4453 45.2397C44.8933 51.453 41.0093 54.5597 34.7973 54.5597C25.4773 54.5597 24.3147 47.573 19.656 46.4063C16.5493 45.629 13.832 46.793 11.5027 49.8997Z" fill="url(#paint0_linear)"/>
<path fill-rule="evenodd" clip-rule="evenodd" d="M66.5733 37.3503H63.524V35.5237H71.7507V37.3503H68.7027V45.6357H66.5733V37.3503ZM75.7333 44.701C75.4512 45.0224 75.1178 45.295 74.7467 45.5077C74.384 45.7157 73.9133 45.8197 73.336 45.8197C73.0174 45.8212 72.7001 45.7781 72.3933 45.6917C72.0947 45.6063 71.8333 45.4743 71.612 45.2957C71.3907 45.117 71.212 44.889 71.0814 44.609C70.9507 44.329 70.8813 43.9983 70.8813 43.609C70.8813 43.0997 70.9947 42.6837 71.2227 42.3623C71.4512 42.0397 71.7588 41.7812 72.116 41.6117C72.484 41.4317 72.8973 41.305 73.356 41.229C73.8188 41.1528 74.286 41.1056 74.7547 41.0877L75.704 41.045V40.677C75.704 40.2237 75.58 39.9117 75.328 39.7437C75.076 39.5757 74.7814 39.4903 74.4427 39.4903C73.656 39.4903 73.208 39.7877 73.096 40.3837L71.2827 40.2143C71.4134 39.441 71.7547 38.881 72.3027 38.5343C72.8507 38.1877 73.5894 38.017 74.516 38.017C75.0827 38.017 75.5654 38.0837 75.9627 38.2223C76.36 38.361 76.68 38.5557 76.92 38.809C77.166 39.0724 77.3461 39.3905 77.4453 39.737C77.5547 40.0997 77.608 40.5103 77.608 40.9637V45.637H75.7333V44.7037V44.701ZM75.6907 42.3357L74.8107 42.3783C74.3947 42.3957 74.0587 42.4397 73.804 42.5063C73.5494 42.573 73.3507 42.6557 73.2173 42.7543C73.084 42.853 72.9867 42.9677 72.9414 43.101C72.896 43.2343 72.8707 43.381 72.8707 43.541C72.8707 43.7863 72.956 43.981 73.124 44.121C73.292 44.261 73.5307 44.3343 73.8307 44.3343C74.3427 44.3343 74.7587 44.217 75.0787 43.9797C75.2587 43.8463 75.4067 43.6783 75.5187 43.477C75.6307 43.2757 75.688 43.021 75.688 42.7197V42.337L75.6907 42.3357ZM79.2187 38.2423H81.2053V45.6343H79.2187V38.2423ZM79.192 35.5223H81.232V37.3063H79.192V35.5223ZM82.904 35.5223H84.8907V45.6343H82.904V35.5223ZM85.78 38.2423H87.9347L88.9707 43.1423L90.3867 38.313H92.1173L93.4507 43.157L94.4867 38.257H96.5574L94.4014 45.649H92.472L91.152 40.777L89.8187 45.649H87.9333L85.7787 38.257L85.78 38.2423ZM97.46 38.2423H99.4467V45.6343H97.46V38.2423ZM97.4333 35.5223H99.4734V37.3063H97.4333V35.5223ZM101.132 38.2423H103.061V39.2623C103.355 38.829 103.701 38.5117 104.101 38.313C104.501 38.1143 104.921 38.0157 105.355 38.0157C106.197 38.0157 106.821 38.2357 107.228 38.6743C107.635 39.113 107.839 39.805 107.839 40.749V45.6343H105.853V41.0197C105.853 40.4863 105.755 40.1463 105.555 39.957C105.355 39.7677 105.092 39.6743 104.761 39.6743C104.508 39.6743 104.287 39.7143 104.101 39.7877C103.916 39.861 103.744 39.9717 103.584 40.113C103.451 40.2463 103.34 40.4037 103.251 40.5877C103.161 40.7754 103.116 40.981 103.117 41.189V45.6357H101.117V38.2437L101.132 38.2423ZM114.572 44.6583C114.323 45.0379 113.982 45.3478 113.58 45.5584C113.178 45.7691 112.728 45.8737 112.275 45.8623C111.235 45.8623 110.461 45.513 109.948 44.8143C109.435 44.1157 109.183 43.1477 109.183 41.9117C109.177 41.3773 109.251 40.8451 109.404 40.333C109.551 39.8557 109.76 39.445 110.035 39.101C110.304 38.7605 110.649 38.4868 111.041 38.301C111.441 38.1143 111.888 38.0183 112.388 38.0183C112.756 38.0183 113.121 38.085 113.485 38.2183C113.849 38.3517 114.192 38.6183 114.515 38.9837V35.5277H116.501V45.6397H114.573V44.6623L114.572 44.6583ZM114.529 41.8543C114.529 41.3823 114.489 41.005 114.396 40.721C114.303 40.437 114.185 40.2077 114.007 40.0277C113.836 39.8583 113.649 39.761 113.447 39.6943C113.25 39.6429 113.048 39.617 112.845 39.617C112.633 39.616 112.423 39.6596 112.228 39.745C112.033 39.8303 111.865 39.9623 111.717 40.141C111.569 40.3197 111.455 40.557 111.371 40.8477C111.287 41.1383 111.243 41.4877 111.243 41.8957C111.243 42.3383 111.283 42.709 111.376 43.0077C111.469 43.3063 111.567 43.5463 111.709 43.7303C111.852 43.9143 112.016 44.0463 112.205 44.1263C112.395 44.2063 112.599 44.2597 112.816 44.2597C113.288 44.2597 113.676 44.1223 113.979 43.849C114.17 43.6559 114.313 43.4207 114.396 43.1623C114.484 42.893 114.529 42.5463 114.529 42.1223V41.869V41.8543ZM130.052 42.137C130.004 42.6757 129.879 43.173 129.676 43.6303C129.479 44.0784 129.195 44.4827 128.84 44.8197C128.464 45.1687 128.019 45.4361 127.535 45.605C127.02 45.7917 126.423 45.8877 125.741 45.8877C124.976 45.8877 124.301 45.7597 123.72 45.505C123.157 45.2637 122.657 44.8954 122.26 44.429C121.867 43.9663 121.572 43.4063 121.373 42.749C121.175 42.0917 121.076 41.3677 121.076 40.5757C121.076 39.7543 121.183 39.0183 121.401 38.3663C121.62 37.7143 121.932 37.1583 122.337 36.6957C122.743 36.233 123.236 35.8783 123.812 35.633C124.388 35.3877 125.043 35.265 125.772 35.265C126.415 35.265 126.976 35.345 127.452 35.505C127.928 35.665 128.332 35.897 128.659 36.1983C128.985 36.4997 129.245 36.865 129.445 37.289C129.653 37.7448 129.801 38.2257 129.884 38.7197L127.784 38.989C127.68 38.3943 127.477 37.9263 127.184 37.5863C126.891 37.2463 126.413 37.077 125.771 37.077C124.957 37.077 124.34 37.381 123.921 37.9903C123.503 38.5997 123.288 39.4597 123.288 40.5743C123.288 41.6983 123.515 42.5743 123.963 43.1663C124.166 43.4552 124.437 43.6893 124.752 43.8475C125.068 44.0058 125.418 44.0832 125.771 44.073C126.424 44.073 126.904 43.905 127.211 43.5703C127.517 43.2357 127.708 42.757 127.784 42.133L130.052 42.137ZM133.141 42.337C133.188 42.9597 133.389 43.413 133.741 43.697C134.093 43.981 134.617 44.1237 135.308 44.1237C135.639 44.1237 135.919 44.0877 136.145 44.017C136.372 43.9463 136.556 43.8517 136.699 43.7343C136.835 43.6242 136.94 43.4803 137.003 43.317C137.066 43.1496 137.097 42.9719 137.095 42.793C137.095 42.5263 136.997 42.2797 136.799 42.049C136.6 41.8183 136.236 41.649 135.705 41.5463L134.385 41.3063C133.852 41.213 133.407 41.089 133.009 40.9383C132.612 40.7877 132.279 40.5917 132.009 40.3517C131.74 40.1117 131.535 39.8157 131.393 39.4663C131.252 39.117 131.18 38.701 131.18 38.2197C131.171 37.7774 131.271 37.3397 131.471 36.945C131.663 36.5787 131.94 36.2633 132.279 36.025C132.625 35.7797 133.039 35.593 133.519 35.465C133.999 35.337 134.532 35.2743 135.108 35.2743C135.845 35.2743 136.46 35.3597 136.952 35.5277C137.444 35.6957 137.841 35.921 138.144 36.201C138.447 36.481 138.671 36.801 138.817 37.1717C138.964 37.5423 139.061 37.9223 139.111 38.3183L137.111 38.5717C137.007 38.0143 136.807 37.6117 136.511 37.3677C136.215 37.1237 135.761 36.9997 135.156 36.9997C134.796 36.9997 134.503 37.0303 134.269 37.093C134.036 37.1557 133.851 37.2343 133.709 37.333C133.579 37.4181 133.476 37.5383 133.411 37.6797C133.355 37.813 133.325 37.949 133.325 38.0903C133.325 38.4677 133.432 38.7517 133.645 38.9397C133.859 39.1277 134.219 39.2757 134.729 39.3797L136.119 39.649C137.216 39.8663 138.02 40.2183 138.532 40.7023C139.044 41.1863 139.297 41.9023 139.297 42.805C139.297 43.2477 139.215 43.6583 139.049 44.0317C138.88 44.4089 138.627 44.743 138.311 45.009C137.95 45.3067 137.534 45.5285 137.085 45.661C136.595 45.817 136.019 45.8943 135.355 45.8943C133.973 45.8943 132.917 45.601 132.185 45.009C131.453 44.417 131.057 43.5423 130.985 42.3397H133.127L133.141 42.337ZM142.341 42.337C142.388 42.9597 142.589 43.413 142.941 43.697C143.293 43.981 143.821 44.1237 144.508 44.1237C144.841 44.1237 145.119 44.0877 145.348 44.017C145.577 43.9463 145.759 43.8517 145.901 43.7343C146.037 43.6242 146.142 43.4803 146.205 43.317C146.268 43.1496 146.299 42.9719 146.297 42.793C146.293 42.5168 146.187 42.2518 146 42.049C145.8 41.8183 145.437 41.649 144.907 41.5463L143.587 41.3063C143.053 41.213 142.608 41.089 142.211 40.9383C141.813 40.7877 141.48 40.5917 141.211 40.3517C140.941 40.1117 140.736 39.8157 140.593 39.4663C140.451 39.117 140.38 38.701 140.38 38.2197C140.371 37.7774 140.471 37.3397 140.671 36.945C140.865 36.577 141.135 36.269 141.479 36.0117C141.823 35.7543 142.239 35.5797 142.719 35.4517C143.199 35.3237 143.732 35.261 144.308 35.261C145.045 35.261 145.66 35.3463 146.152 35.5143C146.644 35.6823 147.04 35.9077 147.344 36.1877C147.648 36.4677 147.872 36.7877 148.017 37.1583C148.163 37.529 148.261 37.909 148.311 38.305L146.311 38.5583C146.207 38.001 146.007 37.5983 145.711 37.3543C145.415 37.1103 144.961 36.9863 144.356 36.9863C143.996 36.9863 143.703 37.017 143.469 37.0797C143.236 37.1423 143.051 37.221 142.909 37.3197C142.779 37.4048 142.676 37.525 142.611 37.6663C142.553 37.7997 142.525 37.9357 142.525 38.077C142.525 38.4543 142.632 38.7383 142.845 38.9263C143.059 39.1143 143.419 39.2623 143.931 39.3663L145.333 39.6463C146.431 39.8637 147.235 40.2157 147.747 40.6997C148.259 41.1837 148.512 41.8997 148.512 42.8023C148.517 43.2237 148.432 43.6413 148.264 44.0277C148.095 44.4051 147.842 44.7393 147.525 45.005C147.2 45.285 146.792 45.501 146.299 45.6583C145.805 45.8157 145.232 45.8917 144.569 45.8917C143.188 45.8917 142.132 45.5983 141.399 45.0063C140.665 44.4143 140.271 43.5397 140.215 42.337H142.341Z" fill="#24292E"/>
<defs>
<linearGradient id="paint0_linear" x1="11.5027" y1="1.75435" x2="58.0933" y2="79.405" gradientUnits="userSpaceOnUse">
<stop stop-color="#2383AE"/>
<stop offset="1" stop-color="#6DD7B9"/>
</linearGradient>
</defs>
</svg>
